<svg width="12" height="19" viewBox="0 0 12 19" fill="none" xmlns="http://www.w3.org/2000/svg">
<path d="M0.75 5.675V12.4167C0.75 13.7427 1.27678 15.0145 2.21447 15.9522C3.15215 16.8899 4.42392 17.4167 5.75 17.4167C7.07608 17.4167 8.34785 16.8899 9.28553 15.9522C10.2232 15.0145 10.75 13.7427 10.75 12.4167V4.08333C10.75 3.19928 10.3988 2.35143 9.77369 1.72631C9.14857 1.10119 8.30072 0.75 7.41667 0.75C6.53261 0.75 5.68477 1.10119 5.05964 1.72631C4.43452 2.35143 4.08333 3.19928 4.08333 4.08333V11.735C4.08333 11.9539 4.12644 12.1706 4.2102 12.3728C4.29396 12.575 4.41672 12.7587 4.57149 12.9135C4.72625 13.0683 4.90999 13.191 5.11219 13.2748C5.3144 13.3586 5.53113 13.4017 5.75 13.4017C6.19203 13.4017 6.61595 13.2261 6.92851 12.9135C7.24107 12.601 7.41667 12.177 7.41667 11.735V5.75" stroke="white" stroke-width="1.5" stroke-linecap="round" stroke-linejoin="round"/>
</svg>
