<svg width="40" height="40" viewBox="0 0 40 40" fill="none" xmlns="http://www.w3.org/2000/svg">
<foreignObject x="-25" y="-25" width="90" height="90"><div xmlns="http://www.w3.org/1999/xhtml" style="backdrop-filter:blur(12.5px);clip-path:url(#bgblur_0_2223_1569_clip_path);height:100%;width:100%"></div></foreignObject><g filter="url(#filter0_ii_2223_1569)" data-figma-bg-blur-radius="25">
<path d="M0 20C0 8.95431 8.95431 0 20 0C31.0457 0 40 8.95431 40 20C40 31.0457 31.0457 40 20 40C8.95431 40 0 31.0457 0 20Z" fill="#9747FF" fill-opacity="0.05"/>
<path d="M22.5 28.3334V25.0001C22.6159 23.9562 22.3166 22.9085 21.6667 22.0834C24.1667 22.0834 26.6667 20.4167 26.6667 17.5001C26.7333 16.4584 26.4417 15.4334 25.8333 14.5834C26.0667 13.6251 26.0667 12.6251 25.8333 11.6667C25.8333 11.6667 25 11.6667 23.3333 12.9167C21.1333 12.5001 18.8667 12.5001 16.6667 12.9167C15 11.6667 14.1667 11.6667 14.1667 11.6667C13.9167 12.6251 13.9167 13.6251 14.1667 14.5834C13.5599 15.43 13.2654 16.4607 13.3333 17.5001C13.3333 20.4167 15.8333 22.0834 18.3333 22.0834C18.0083 22.4917 17.7667 22.9584 17.625 23.4584C17.4833 23.9584 17.4417 24.4834 17.5 25.0001V28.3334" stroke="white" stroke-width="1.66667" stroke-linecap="round" stroke-linejoin="round"/>
<path d="M17.5 24.9999C13.7416 26.6666 13.3333 23.3333 11.6666 23.3333" stroke="white" stroke-width="1.66667" stroke-linecap="round" stroke-linejoin="round"/>
</g>
<defs>
<filter id="filter0_ii_2223_1569" x="-25" y="-25" width="90" height="90" filterUnits="userSpaceOnUse" color-interpolation-filters="sRGB">
<feFlood flood-opacity="0" result="BackgroundImageFix"/>
<feBlend mode="normal" in="SourceGraphic" in2="BackgroundImageFix" result="shape"/>
<feColorMatrix in="SourceAlpha" type="matrix" values="0 0 0 0 0 0 0 0 0 0 0 0 0 0 0 0 0 0 127 0" result="hardAlpha"/>
<feOffset dx="-2" dy="-2"/>
<feGaussianBlur stdDeviation="2"/>
<feComposite in2="hardAlpha" operator="arithmetic" k2="-1" k3="1"/>
<feColorMatrix type="matrix" values="0 0 0 0 1 0 0 0 0 1 0 0 0 0 1 0 0 0 0.1 0"/>
<feBlend mode="normal" in2="shape" result="effect1_innerShadow_2223_1569"/>
<feColorMatrix in="SourceAlpha" type="matrix" values="0 0 0 0 0 0 0 0 0 0 0 0 0 0 0 0 0 0 127 0" result="hardAlpha"/>
<feOffset dy="1"/>
<feGaussianBlur stdDeviation="0.5"/>
<feComposite in2="hardAlpha" operator="arithmetic" k2="-1" k3="1"/>
<feColorMatrix type="matrix" values="0 0 0 0 1 0 0 0 0 1 0 0 0 0 1 0 0 0 0.1 0"/>
<feBlend mode="normal" in2="effect1_innerShadow_2223_1569" result="effect2_innerShadow_2223_1569"/>
</filter>
<clipPath id="bgblur_0_2223_1569_clip_path" transform="translate(25 25)"><path d="M0 20C0 8.95431 8.95431 0 20 0C31.0457 0 40 8.95431 40 20C40 31.0457 31.0457 40 20 40C8.95431 40 0 31.0457 0 20Z"/>
</clipPath></defs>
</svg>
