<svg width="47" height="48" viewBox="0 0 47 48" fill="none" xmlns="http://www.w3.org/2000/svg">
<path fill-rule="evenodd" clip-rule="evenodd" d="M5.33176 28.4445C17.4798 30.5514 29.6281 30.4805 41.7761 28.4445V11.5556C41.7761 11.3632 41.7138 11.1761 41.5984 11.0223L33.5984 0.355625C33.5156 0.245242 33.4083 0.155643 33.2849 0.0939197C33.1615 0.0321961 33.0254 4.13867e-05 32.8874 0H7.99843C7.2912 5.65711e-05 6.61296 0.281025 6.11287 0.781108C5.61279 1.28119 5.33182 1.95943 5.33176 2.66666V23.1112C5.33176 24.4313 5.02222 25.5502 5.02222 26.4421C5.02222 27.6752 5.33176 28.4445 5.33176 28.4445Z" fill="#D8DFE3"/>
<path fill-rule="evenodd" clip-rule="evenodd" d="M0 26.1403V45.3334C5.65713e-05 46.0406 0.281027 46.7188 0.781111 47.2189C1.2812 47.719 1.95944 48 2.66667 48H43.5556C44.2628 47.9998 44.941 47.7188 45.4411 47.2188C45.9411 46.7187 46.2221 46.0405 46.2223 45.3334V31.1113C46.2222 30.4041 45.9413 29.7259 45.4412 29.2258C44.9411 28.7257 44.2629 28.4447 43.5556 28.4447H5.3376C4.20352 28.4447 0 26.1403 0 26.1403Z" fill="#2D98DB"/>
<path fill-rule="evenodd" clip-rule="evenodd" d="M2.66667 28.4443C1.85515 28.4443 1.26272 28.1151 0.826667 27.7098C0.416427 27.3283 0 26.6561 0 25.7776C0 25.2138 0.28096 24.392 0.781013 23.892C1.28107 23.3919 1.95947 23.111 2.66667 23.111H5.33333V28.4443H2.66667Z" fill="#216896"/>
<path fill-rule="evenodd" clip-rule="evenodd" d="M32.8928 0V8.88893C32.8929 9.59615 33.1738 10.2744 33.6739 10.7745C34.174 11.2746 34.8523 11.5555 35.5595 11.5556H41.7816C41.7816 11.3632 41.7193 11.1761 41.6039 11.0223L33.6039 0.355625C33.5211 0.245242 33.4137 0.155643 33.2903 0.0939197C33.1669 0.0321961 33.0308 4.13867e-05 32.8928 0Z" fill="#AFBDC7"/>
<path fill-rule="evenodd" clip-rule="evenodd" d="M12.1089 34.3332V42.6664C12.1089 43.157 12.5072 43.5553 12.9976 43.5553C13.4883 43.5553 13.8866 43.157 13.8866 42.6664V34.3332C13.8866 33.8425 13.4883 33.4442 12.9976 33.4442C12.7619 33.4444 12.5359 33.5381 12.3693 33.7048C12.2027 33.8715 12.109 34.0975 12.1089 34.3332Z" fill="#D8DFE3"/>
<path fill-rule="evenodd" clip-rule="evenodd" d="M16.3364 32.8888H9.66972C9.43399 32.8889 9.20794 32.9826 9.04126 33.1493C8.87457 33.316 8.78087 33.542 8.78076 33.7778C8.78093 34.0134 8.87465 34.2394 9.04133 34.4061C9.20801 34.5727 9.43403 34.6664 9.66972 34.6665H16.3362C16.8268 34.6665 17.2251 34.2682 17.2251 33.7778C17.2251 33.2871 16.8268 32.8888 16.3364 32.8888ZM36.5585 32.8888H29.8918C29.6561 32.8889 29.4301 32.9826 29.2634 33.1493C29.0968 33.316 29.0031 33.542 29.0031 33.7778C29.0032 34.0134 29.0968 34.2394 29.2635 34.4061C29.4301 34.5727 29.6561 34.6664 29.8918 34.6665H36.5585C37.0491 34.6665 37.4474 34.2682 37.4474 33.7778C37.4474 33.2871 37.0491 32.8888 36.5585 32.8888ZM19.8941 43.2518L27.6719 34.3629C27.8221 34.1848 27.8963 33.9549 27.8787 33.7226C27.8611 33.4903 27.753 33.2742 27.5777 33.1208C27.4024 32.9674 27.1738 32.8889 26.9412 32.9023C26.7086 32.9157 26.4906 33.0199 26.334 33.1924L18.5561 42.0813C18.401 42.2588 18.3227 42.4905 18.3384 42.7257C18.3541 42.9608 18.4625 43.1802 18.6397 43.3355C18.8173 43.4906 19.0491 43.5689 19.2843 43.5532C19.5194 43.5375 19.7388 43.4291 19.8941 43.2518Z" fill="#D8DFE3"/>
<path fill-rule="evenodd" clip-rule="evenodd" d="M27.6718 42.0815L19.8941 33.1926C19.7388 33.0153 19.5194 32.9069 19.2842 32.8913C19.049 32.8756 18.8172 32.9539 18.6397 33.109C18.4625 33.2643 18.3541 33.4836 18.3384 33.7188C18.3227 33.9539 18.401 34.1857 18.5561 34.3632L26.334 43.2521C26.4906 43.4246 26.7086 43.5287 26.9412 43.5421C27.1738 43.5555 27.4023 43.4771 27.5777 43.3237C27.753 43.1703 27.8611 42.9541 27.8787 42.7218C27.8963 42.4895 27.822 42.2596 27.6718 42.0815ZM32.3362 34.3335V42.6667C32.3363 42.9024 32.43 43.1284 32.5967 43.2951C32.7634 43.4618 32.9894 43.5555 33.2251 43.5557C33.7158 43.5557 34.1141 43.1574 34.1141 42.6667V34.3335C34.1141 33.8428 33.7158 33.4445 33.2251 33.4445C32.9894 33.4447 32.7634 33.5384 32.5967 33.7051C32.43 33.8718 32.3363 34.0978 32.3362 34.3335Z" fill="#D8DFE3"/>
</svg>
