<svg width="32" height="32" viewBox="0 0 32 32" fill="none" xmlns="http://www.w3.org/2000/svg">
<rect width="32" height="32" rx="6" fill="url(#paint0_linear_2223_1575)"/>
<path d="M11.8849 21V10.8182H15.902C16.6709 10.8182 17.3272 10.9557 17.8707 11.2308C18.4176 11.5026 18.8336 11.8887 19.1186 12.3892C19.407 12.8864 19.5511 13.4714 19.5511 14.1442C19.5511 14.8203 19.4053 15.402 19.1136 15.8892C18.822 16.3731 18.3994 16.7443 17.8459 17.0028C17.2957 17.2614 16.6295 17.3906 15.8473 17.3906H13.1577V15.6605H15.4993C15.9103 15.6605 16.2517 15.6042 16.5234 15.4915C16.7952 15.3788 16.9974 15.2098 17.13 14.9844C17.2659 14.759 17.3338 14.4789 17.3338 14.1442C17.3338 13.8061 17.2659 13.5211 17.13 13.2891C16.9974 13.0571 16.7936 12.8814 16.5185 12.7621C16.2467 12.6394 15.9036 12.5781 15.4893 12.5781H14.0376V21H11.8849ZM17.3835 16.3665L19.9141 21H17.5376L15.0618 16.3665H17.3835Z" fill="white"/>
<defs>
<linearGradient id="paint0_linear_2223_1575" x1="0" y1="0" x2="32" y2="32" gradientUnits="userSpaceOnUse">
<stop stop-color="#667EEA"/>
<stop offset="1" stop-color="#764BA2"/>
</linearGradient>
</defs>
</svg>
