<svg width="40" height="40" viewBox="0 0 40 40" fill="none" xmlns="http://www.w3.org/2000/svg">
<foreignObject x="-25" y="-25" width="90" height="90"><div xmlns="http://www.w3.org/1999/xhtml" style="backdrop-filter:blur(12.5px);clip-path:url(#bgblur_0_2223_1567_clip_path);height:100%;width:100%"></div></foreignObject><g filter="url(#filter0_ii_2223_1567)" data-figma-bg-blur-radius="25">
<path d="M0 20C0 8.95431 8.95431 0 20 0C31.0457 0 40 8.95431 40 20C40 31.0457 31.0457 40 20 40C8.95431 40 0 31.0457 0 20Z" fill="#9747FF" fill-opacity="0.05"/>
<path d="M23.3334 16.6667C24.6595 16.6667 25.9312 17.1935 26.8689 18.1312C27.8066 19.0689 28.3334 20.3407 28.3334 21.6667V27.5001H25V21.6667C25 21.2247 24.8244 20.8008 24.5119 20.4882C24.1993 20.1757 23.7754 20.0001 23.3334 20.0001C22.8913 20.0001 22.4674 20.1757 22.1549 20.4882C21.8423 20.8008 21.6667 21.2247 21.6667 21.6667V27.5001H18.3334V21.6667C18.3334 20.3407 18.8602 19.0689 19.7978 18.1312C20.7355 17.1935 22.0073 16.6667 23.3334 16.6667Z" stroke="white" stroke-width="1.66667" stroke-linecap="round" stroke-linejoin="round"/>
<path d="M15 17.5H11.6666V27.5H15V17.5Z" stroke="white" stroke-width="1.66667" stroke-linecap="round" stroke-linejoin="round"/>
<path d="M13.3333 15.0001C14.2538 15.0001 15 14.2539 15 13.3334C15 12.4129 14.2538 11.6667 13.3333 11.6667C12.4128 11.6667 11.6666 12.4129 11.6666 13.3334C11.6666 14.2539 12.4128 15.0001 13.3333 15.0001Z" stroke="white" stroke-width="1.66667" stroke-linecap="round" stroke-linejoin="round"/>
</g>
<defs>
<filter id="filter0_ii_2223_1567" x="-25" y="-25" width="90" height="90" filterUnits="userSpaceOnUse" color-interpolation-filters="sRGB">
<feFlood flood-opacity="0" result="BackgroundImageFix"/>
<feBlend mode="normal" in="SourceGraphic" in2="BackgroundImageFix" result="shape"/>
<feColorMatrix in="SourceAlpha" type="matrix" values="0 0 0 0 0 0 0 0 0 0 0 0 0 0 0 0 0 0 127 0" result="hardAlpha"/>
<feOffset dx="-2" dy="-2"/>
<feGaussianBlur stdDeviation="2"/>
<feComposite in2="hardAlpha" operator="arithmetic" k2="-1" k3="1"/>
<feColorMatrix type="matrix" values="0 0 0 0 1 0 0 0 0 1 0 0 0 0 1 0 0 0 0.1 0"/>
<feBlend mode="normal" in2="shape" result="effect1_innerShadow_2223_1567"/>
<feColorMatrix in="SourceAlpha" type="matrix" values="0 0 0 0 0 0 0 0 0 0 0 0 0 0 0 0 0 0 127 0" result="hardAlpha"/>
<feOffset dy="1"/>
<feGaussianBlur stdDeviation="0.5"/>
<feComposite in2="hardAlpha" operator="arithmetic" k2="-1" k3="1"/>
<feColorMatrix type="matrix" values="0 0 0 0 1 0 0 0 0 1 0 0 0 0 1 0 0 0 0.1 0"/>
<feBlend mode="normal" in2="effect1_innerShadow_2223_1567" result="effect2_innerShadow_2223_1567"/>
</filter>
<clipPath id="bgblur_0_2223_1567_clip_path" transform="translate(25 25)"><path d="M0 20C0 8.95431 8.95431 0 20 0C31.0457 0 40 8.95431 40 20C40 31.0457 31.0457 40 20 40C8.95431 40 0 31.0457 0 20Z"/>
</clipPath></defs>
</svg>
