<svg width="365" height="262" viewBox="0 0 365 262" fill="none" xmlns="http://www.w3.org/2000/svg">
<g clip-path="url(#clip0_2468_828)">
<g filter="url(#filter0_ii_2468_828)">
<path d="M204.396 0H153.967C145.505 0 138.645 6.8598 138.645 15.3218V18.8159C138.645 27.2779 145.505 34.1377 153.967 34.1377H204.396C212.858 34.1377 219.718 27.2779 219.718 18.8159V15.3218C219.718 6.8598 212.858 0 204.396 0Z" fill="white" fill-opacity="0.05"/>
<path d="M166.347 22.6721C166.05 22.6721 165.794 22.5669 165.58 22.3565C165.366 22.1425 165.259 21.885 165.259 21.5839C165.259 21.2865 165.366 21.0326 165.58 20.8222C165.794 20.6082 166.05 20.5012 166.347 20.5012C166.645 20.5012 166.9 20.6082 167.114 20.8222C167.328 21.0326 167.435 21.2865 167.435 21.5839C167.435 21.7834 167.385 21.9666 167.283 22.1335C167.185 22.2967 167.054 22.4273 166.891 22.5252C166.728 22.6232 166.547 22.6721 166.347 22.6721ZM169.614 25.7028V14.2114H171.203V15.5662H171.339C171.434 15.3921 171.57 15.1908 171.747 14.9623C171.925 14.7337 172.172 14.5342 172.487 14.3637C172.803 14.1896 173.22 14.1026 173.739 14.1026C174.413 14.1026 175.016 14.2731 175.545 14.614C176.075 14.955 176.49 15.4465 176.791 16.0885C177.096 16.7306 177.248 17.5032 177.248 18.4064C177.248 19.3096 177.098 20.084 176.797 20.7297C176.495 21.3717 176.082 21.8669 175.556 22.2151C175.03 22.5597 174.43 22.732 173.755 22.732C173.247 22.732 172.832 22.6467 172.509 22.4763C172.19 22.3058 171.94 22.1063 171.758 21.8777C171.577 21.6492 171.437 21.4461 171.339 21.2684H171.241V25.7028H169.614ZM171.209 18.3901C171.209 18.9777 171.294 19.4928 171.464 19.9353C171.635 20.3778 171.882 20.7243 172.204 20.9745C172.527 21.2212 172.923 21.3445 173.39 21.3445C173.877 21.3445 174.283 21.2158 174.609 20.9582C174.936 20.6971 175.182 20.3434 175.349 19.8972C175.52 19.4511 175.605 18.9487 175.605 18.3901C175.605 17.8387 175.522 17.3436 175.355 16.9047C175.191 16.4658 174.945 16.1194 174.615 15.8655C174.288 15.6115 173.88 15.4846 173.39 15.4846C172.919 15.4846 172.52 15.6061 172.193 15.8491C171.871 16.0922 171.626 16.4313 171.459 16.8666C171.292 17.3019 171.209 17.8097 171.209 18.3901ZM182.199 22.732C181.525 22.732 180.923 22.5597 180.393 22.2151C179.867 21.8669 179.454 21.3717 179.152 20.7297C178.855 20.084 178.706 19.3096 178.706 18.4064C178.706 17.5032 178.857 16.7306 179.158 16.0885C179.463 15.4465 179.88 14.955 180.409 14.614C180.939 14.2731 181.539 14.1026 182.21 14.1026C182.729 14.1026 183.146 14.1896 183.462 14.3637C183.781 14.5342 184.028 14.7337 184.202 14.9623C184.379 15.1908 184.517 15.3921 184.615 15.5662H184.713V11.4256H186.34V22.5687H184.751V21.2684H184.615C184.517 21.4461 184.376 21.6492 184.191 21.8777C184.009 22.1063 183.759 22.3058 183.44 22.4763C183.121 22.6467 182.707 22.732 182.199 22.732ZM182.559 21.3445C183.026 21.3445 183.422 21.2212 183.745 20.9745C184.071 20.7243 184.318 20.3778 184.485 19.9353C184.655 19.4928 184.74 18.9777 184.74 18.3901C184.74 17.8097 184.657 17.3019 184.49 16.8666C184.323 16.4313 184.078 16.0922 183.756 15.8491C183.433 15.6061 183.034 15.4846 182.559 15.4846C182.069 15.4846 181.661 15.6115 181.334 15.8655C181.008 16.1194 180.761 16.4658 180.594 16.9047C180.431 17.3436 180.35 17.8387 180.35 18.3901C180.35 18.9487 180.433 19.4511 180.6 19.8972C180.767 20.3434 181.013 20.6971 181.34 20.9582C181.67 21.2158 182.076 21.3445 182.559 21.3445ZM192.639 14.2114V15.5172H187.917V14.2114H192.639ZM189.212 22.5687V13.2429C189.212 12.7206 189.326 12.2871 189.554 11.9425C189.783 11.5943 190.086 11.3349 190.463 11.1645C190.84 10.9903 191.25 10.9033 191.693 10.9033C192.019 10.9033 192.298 10.9305 192.531 10.9849C192.763 11.0357 192.935 11.0828 193.047 11.1264L192.667 12.4431C192.59 12.4213 192.492 12.3959 192.373 12.3669C192.253 12.3343 192.108 12.3179 191.937 12.3179C191.542 12.3179 191.259 12.4159 191.089 12.6118C190.922 12.8076 190.838 13.0906 190.838 13.4605V22.5687H189.212Z" fill="white"/>
</g>
<g filter="url(#filter1_ii_2468_828)">
<path d="M76.7509 113.678H15.3218C6.8598 113.678 0 120.538 0 129V132.494C0 140.956 6.8598 147.816 15.3218 147.816H76.7509C85.2129 147.816 92.0727 140.956 92.0727 132.494V129C92.0727 120.538 85.2129 113.678 76.7509 113.678Z" fill="white" fill-opacity="0.05"/>
<path d="M27.702 136.35C27.4045 136.35 27.1488 136.245 26.9348 136.034C26.7208 135.82 26.6138 135.563 26.6138 135.262C26.6138 134.964 26.7208 134.71 26.9348 134.5C27.1488 134.286 27.4045 134.179 27.702 134.179C27.9994 134.179 28.2552 134.286 28.4692 134.5C28.6832 134.71 28.7902 134.964 28.7902 135.262C28.7902 135.461 28.7394 135.644 28.6378 135.811C28.5399 135.975 28.4093 136.105 28.2461 136.203C28.0829 136.301 27.9015 136.35 27.702 136.35ZM34.0979 136.41C33.4232 136.41 32.821 136.238 32.2915 135.893C31.7655 135.545 31.352 135.05 31.0509 134.408C30.7535 133.762 30.6047 132.987 30.6047 132.084C30.6047 131.181 30.7553 130.408 31.0564 129.766C31.361 129.124 31.7782 128.633 32.3078 128.292C32.8374 127.951 33.4377 127.78 34.1087 127.78C34.6274 127.78 35.0446 127.867 35.3602 128.042C35.6794 128.212 35.926 128.412 36.1001 128.64C36.2779 128.869 36.4157 129.07 36.5137 129.244H36.6116V125.103H38.2384V136.247H36.6497V134.946H36.5137C36.4157 135.124 36.2743 135.327 36.0893 135.556C35.9079 135.784 35.6576 135.984 35.3384 136.154C35.0192 136.325 34.6057 136.41 34.0979 136.41ZM34.457 135.022C34.9249 135.022 35.3203 134.899 35.6431 134.652C35.9696 134.402 36.2162 134.056 36.3831 133.613C36.5536 133.171 36.6388 132.656 36.6388 132.068C36.6388 131.488 36.5554 130.98 36.3885 130.544C36.2217 130.109 35.9768 129.77 35.654 129.527C35.3311 129.284 34.9321 129.162 34.457 129.162C33.9673 129.162 33.5592 129.289 33.2327 129.543C32.9063 129.797 32.6596 130.144 32.4928 130.583C32.3295 131.021 32.2479 131.517 32.2479 132.068C32.2479 132.627 32.3314 133.129 32.4982 133.575C32.6651 134.021 32.9117 134.375 33.2382 134.636C33.5683 134.894 33.9745 135.022 34.457 135.022ZM44.0807 136.415C43.2972 136.415 42.6134 136.236 42.0294 135.877C41.4454 135.517 40.992 135.015 40.6692 134.369C40.3464 133.724 40.185 132.969 40.185 132.106C40.185 131.239 40.3464 130.481 40.6692 129.832C40.992 129.182 41.4454 128.678 42.0294 128.319C42.6134 127.96 43.2972 127.78 44.0807 127.78C44.8642 127.78 45.5479 127.96 46.1319 128.319C46.7159 128.678 47.1694 129.182 47.4922 129.832C47.815 130.481 47.9764 131.239 47.9764 132.106C47.9764 132.969 47.815 133.724 47.4922 134.369C47.1694 135.015 46.7159 135.517 46.1319 135.877C45.5479 136.236 44.8642 136.415 44.0807 136.415ZM44.0861 135.05C44.594 135.05 45.0147 134.915 45.3484 134.647C45.6822 134.379 45.9288 134.021 46.0884 133.575C46.2516 133.129 46.3333 132.637 46.3333 132.101C46.3333 131.567 46.2516 131.078 46.0884 130.631C45.9288 130.182 45.6822 129.821 45.3484 129.549C45.0147 129.277 44.594 129.141 44.0861 129.141C43.5747 129.141 43.1503 129.277 42.8129 129.549C42.4792 129.821 42.2308 130.182 42.0675 130.631C41.9079 131.078 41.8281 131.567 41.8281 132.101C41.8281 132.637 41.9079 133.129 42.0675 133.575C42.2308 134.021 42.4792 134.379 42.8129 134.647C43.1503 134.915 43.5747 135.05 44.0861 135.05ZM53.3127 136.415C52.5038 136.415 51.8073 136.232 51.2233 135.866C50.643 135.496 50.1968 134.986 49.8849 134.337C49.5729 133.688 49.4169 132.944 49.4169 132.106C49.4169 131.257 49.5765 130.508 49.8957 129.859C50.2149 129.206 50.6647 128.696 51.2451 128.33C51.8255 127.964 52.5092 127.78 53.2964 127.78C53.9311 127.78 54.497 127.898 54.9939 128.134C55.4909 128.366 55.8917 128.693 56.1964 129.113C56.5047 129.534 56.6879 130.026 56.7459 130.588H55.1626C55.0756 130.196 54.8761 129.859 54.5641 129.576C54.2558 129.293 53.8423 129.152 53.3236 129.152C52.8701 129.152 52.473 129.271 52.132 129.511C51.7946 129.746 51.5317 130.084 51.343 130.523C51.1544 130.958 51.0601 131.473 51.0601 132.068C51.0601 132.677 51.1526 133.203 51.3376 133.646C51.5226 134.088 51.7838 134.431 52.1211 134.674C52.4621 134.917 52.8629 135.039 53.3236 135.039C53.6319 135.039 53.9112 134.982 54.1615 134.87C54.4154 134.754 54.6276 134.589 54.7981 134.375C54.9722 134.161 55.0937 133.903 55.1626 133.602H56.7459C56.6879 134.143 56.512 134.625 56.2182 135.05C55.9243 135.474 55.5308 135.808 55.0375 136.051C54.5478 136.294 53.9729 136.415 53.3127 136.415ZM59.6949 127.889L61.5394 131.143L63.4003 127.889H65.1795L62.5732 132.068L65.2012 136.247H63.422L61.5394 133.123L59.6623 136.247H57.8777L60.4785 132.068L57.9103 127.889H59.6949Z" fill="white"/>
</g>
<g filter="url(#filter2_ii_2468_828)">
<path d="M112.073 84.7813C112.073 67.8573 125.792 54.1377 142.716 54.1377H234.647C251.571 54.1377 265.291 67.8573 265.291 84.7813V176.712C265.291 193.636 251.571 207.356 234.647 207.356H142.716C125.792 207.356 112.073 193.636 112.073 176.712V84.7813Z" fill="white" fill-opacity="0.05"/>
<path d="M224.432 79.4092H152.931C144.469 79.4092 137.609 86.269 137.609 94.731V166.232C137.609 174.694 144.469 181.554 152.931 181.554H224.432C232.894 181.554 239.754 174.694 239.754 166.232V94.731C239.754 86.269 232.894 79.4092 224.432 79.4092Z" fill="url(#paint0_linear_2468_828)"/>
<path d="M173.91 148.714V111.57H188.565C191.37 111.57 193.764 112.072 195.747 113.075C197.742 114.067 199.259 115.475 200.299 117.301C201.351 119.115 201.877 121.249 201.877 123.703C201.877 126.17 201.345 128.292 200.281 130.069C199.217 131.834 197.675 133.189 195.656 134.132C193.649 135.075 191.219 135.546 188.365 135.546H178.553V129.235H187.096C188.595 129.235 189.84 129.029 190.832 128.618C191.823 128.207 192.561 127.591 193.044 126.768C193.54 125.946 193.788 124.924 193.788 123.703C193.788 122.47 193.54 121.43 193.044 120.584C192.561 119.737 191.817 119.097 190.814 118.661C189.822 118.214 188.571 117.99 187.059 117.99H181.763V148.714H173.91ZM193.969 131.81L203.201 148.714H194.532L185.499 131.81H193.969Z" fill="white"/>
</g>
<g filter="url(#filter3_ii_2468_828)">
<path d="M349.042 114.05H300.613C292.151 114.05 285.291 120.91 285.291 129.372V132.122C285.291 140.584 292.151 147.444 300.613 147.444H349.042C357.504 147.444 364.364 140.584 364.364 132.122V129.372C364.364 120.91 357.504 114.05 349.042 114.05Z" fill="white" fill-opacity="0.05"/>
<path d="M312.992 136.35C312.695 136.35 312.439 136.245 312.225 136.034C312.011 135.82 311.904 135.563 311.904 135.262C311.904 134.964 312.011 134.71 312.225 134.5C312.439 134.286 312.695 134.179 312.992 134.179C313.29 134.179 313.546 134.286 313.76 134.5C313.974 134.71 314.081 134.964 314.081 135.262C314.081 135.461 314.03 135.644 313.928 135.811C313.83 135.975 313.7 136.105 313.537 136.203C313.373 136.301 313.192 136.35 312.992 136.35ZM316.26 136.247V127.889H317.821V129.249H317.925C318.099 128.789 318.384 128.43 318.779 128.172C319.174 127.911 319.648 127.78 320.199 127.78C320.758 127.78 321.226 127.911 321.603 128.172C321.984 128.433 322.265 128.792 322.446 129.249H322.533C322.733 128.803 323.05 128.448 323.485 128.183C323.921 127.915 324.439 127.78 325.041 127.78C325.8 127.78 326.418 128.018 326.897 128.493C327.379 128.968 327.62 129.685 327.62 130.642V136.247H325.994V130.795C325.994 130.229 325.839 129.819 325.531 129.565C325.223 129.311 324.855 129.184 324.427 129.184C323.897 129.184 323.485 129.347 323.192 129.674C322.898 129.997 322.751 130.412 322.751 130.92V136.247H321.129V130.691C321.129 130.238 320.988 129.873 320.705 129.598C320.422 129.322 320.054 129.184 319.6 129.184C319.292 129.184 319.007 129.266 318.746 129.429C318.489 129.589 318.28 129.812 318.121 130.098C317.965 130.385 317.887 130.717 317.887 131.094V136.247H316.26ZM332.93 136.41C332.255 136.41 331.653 136.238 331.123 135.893C330.597 135.545 330.184 135.05 329.883 134.408C329.585 133.762 329.436 132.987 329.436 132.084C329.436 131.181 329.587 130.408 329.888 129.766C330.193 129.124 330.61 128.633 331.139 128.292C331.669 127.951 332.269 127.78 332.94 127.78C333.459 127.78 333.876 127.867 334.192 128.042C334.511 128.212 334.758 128.412 334.932 128.64C335.11 128.869 335.247 129.07 335.345 129.244H335.443V125.103H337.07V136.247H335.481V134.946H335.345C335.247 135.124 335.106 135.327 334.921 135.556C334.74 135.784 334.489 135.984 334.17 136.154C333.851 136.325 333.437 136.41 332.93 136.41ZM333.289 135.022C333.757 135.022 334.152 134.899 334.475 134.652C334.801 134.402 335.048 134.056 335.215 133.613C335.385 133.171 335.47 132.656 335.47 132.068C335.47 131.488 335.387 130.98 335.22 130.544C335.053 130.109 334.808 129.77 334.486 129.527C334.163 129.284 333.764 129.162 333.289 129.162C332.799 129.162 332.391 129.289 332.064 129.543C331.738 129.797 331.491 130.144 331.324 130.583C331.161 131.021 331.08 131.517 331.08 132.068C331.08 132.627 331.163 133.129 331.33 133.575C331.497 134.021 331.743 134.375 332.07 134.636C332.4 134.894 332.806 135.022 333.289 135.022Z" fill="white"/>
</g>
<g filter="url(#filter4_ii_2468_828)">
<path d="M201.896 227.356H156.467C148.005 227.356 141.145 234.216 141.145 242.678V246.172C141.145 254.634 148.005 261.494 156.467 261.494H201.896C210.358 261.494 217.218 254.634 217.218 246.172V242.678C217.218 234.216 210.358 227.356 201.896 227.356Z" fill="white" fill-opacity="0.05"/>
<path d="M168.847 250.028C168.55 250.028 168.294 249.923 168.08 249.712C167.866 249.498 167.759 249.241 167.759 248.94C167.759 248.642 167.866 248.388 168.08 248.178C168.294 247.964 168.55 247.857 168.847 247.857C169.145 247.857 169.4 247.964 169.614 248.178C169.828 248.388 169.935 248.642 169.935 248.94C169.935 249.139 169.885 249.322 169.783 249.489C169.685 249.653 169.554 249.783 169.391 249.881C169.228 249.979 169.047 250.028 168.847 250.028ZM176.016 241.567V242.873H171.451V241.567H176.016ZM172.675 239.565H174.302V247.471C174.302 247.786 174.349 248.024 174.443 248.183C174.538 248.339 174.659 248.446 174.808 248.504C174.96 248.559 175.125 248.586 175.303 248.586C175.433 248.586 175.548 248.577 175.646 248.559C175.744 248.541 175.82 248.526 175.874 248.515L176.168 249.859C176.074 249.896 175.939 249.932 175.765 249.968C175.591 250.008 175.374 250.03 175.112 250.033C174.684 250.041 174.285 249.964 173.915 249.805C173.545 249.645 173.246 249.399 173.018 249.065C172.789 248.731 172.675 248.312 172.675 247.808V239.565ZM179.099 241.567L180.944 244.821L182.805 241.567H184.584L181.978 245.746L184.606 249.925H182.826L180.944 246.801L179.067 249.925H177.282L179.883 245.746L177.315 241.567H179.099ZM190.155 241.567V242.873H185.59V241.567H190.155ZM186.815 239.565H188.441V247.471C188.441 247.786 188.489 248.024 188.583 248.183C188.677 248.339 188.799 248.446 188.947 248.504C189.1 248.559 189.265 248.586 189.443 248.586C189.573 248.586 189.687 248.577 189.785 248.559C189.883 248.541 189.96 248.526 190.014 248.515L190.308 249.859C190.213 249.896 190.079 249.932 189.905 249.968C189.731 250.008 189.513 250.03 189.252 250.033C188.824 250.041 188.425 249.964 188.055 249.805C187.685 249.645 187.386 249.399 187.157 249.065C186.929 248.731 186.815 248.312 186.815 247.808V239.565Z" fill="white"/>
</g>
</g>
<defs>
<filter id="filter0_ii_2468_828" x="106.725" y="-31.9204" width="144.914" height="97.9785" filterUnits="userSpaceOnUse" color-interpolation-filters="sRGB">
<feFlood flood-opacity="0" result="BackgroundImageFix"/>
<feBlend mode="normal" in="SourceGraphic" in2="BackgroundImageFix" result="shape"/>
<feColorMatrix in="SourceAlpha" type="matrix" values="0 0 0 0 0 0 0 0 0 0 0 0 0 0 0 0 0 0 127 0" result="hardAlpha"/>
<feOffset dy="1.27682"/>
<feGaussianBlur stdDeviation="0.638408"/>
<feComposite in2="hardAlpha" operator="arithmetic" k2="-1" k3="1"/>
<feColorMatrix type="matrix" values="0 0 0 0 1 0 0 0 0 1 0 0 0 0 1 0 0 0 0.1 0"/>
<feBlend mode="normal" in2="shape" result="effect1_innerShadow_2468_828"/>
<feColorMatrix in="SourceAlpha" type="matrix" values="0 0 0 0 0 0 0 0 0 0 0 0 0 0 0 0 0 0 127 0" result="hardAlpha"/>
<feOffset dx="-2.55363" dy="-2.55363"/>
<feGaussianBlur stdDeviation="2.55363"/>
<feComposite in2="hardAlpha" operator="arithmetic" k2="-1" k3="1"/>
<feColorMatrix type="matrix" values="0 0 0 0 1 0 0 0 0 1 0 0 0 0 1 0 0 0 0.1 0"/>
<feBlend mode="normal" in2="effect1_innerShadow_2468_828" result="effect2_innerShadow_2468_828"/>
</filter>
<filter id="filter1_ii_2468_828" x="-31.9204" y="81.7576" width="155.914" height="97.9785" filterUnits="userSpaceOnUse" color-interpolation-filters="sRGB">
<feFlood flood-opacity="0" result="BackgroundImageFix"/>
<feBlend mode="normal" in="SourceGraphic" in2="BackgroundImageFix" result="shape"/>
<feColorMatrix in="SourceAlpha" type="matrix" values="0 0 0 0 0 0 0 0 0 0 0 0 0 0 0 0 0 0 127 0" result="hardAlpha"/>
<feOffset dy="1.27682"/>
<feGaussianBlur stdDeviation="0.638408"/>
<feComposite in2="hardAlpha" operator="arithmetic" k2="-1" k3="1"/>
<feColorMatrix type="matrix" values="0 0 0 0 1 0 0 0 0 1 0 0 0 0 1 0 0 0 0.1 0"/>
<feBlend mode="normal" in2="shape" result="effect1_innerShadow_2468_828"/>
<feColorMatrix in="SourceAlpha" type="matrix" values="0 0 0 0 0 0 0 0 0 0 0 0 0 0 0 0 0 0 127 0" result="hardAlpha"/>
<feOffset dx="-2.55363" dy="-2.55363"/>
<feGaussianBlur stdDeviation="2.55363"/>
<feComposite in2="hardAlpha" operator="arithmetic" k2="-1" k3="1"/>
<feColorMatrix type="matrix" values="0 0 0 0 1 0 0 0 0 1 0 0 0 0 1 0 0 0 0.1 0"/>
<feBlend mode="normal" in2="effect1_innerShadow_2468_828" result="effect2_innerShadow_2468_828"/>
</filter>
<filter id="filter2_ii_2468_828" x="80.1526" y="22.2173" width="217.059" height="217.059" filterUnits="userSpaceOnUse" color-interpolation-filters="sRGB">
<feFlood flood-opacity="0" result="BackgroundImageFix"/>
<feBlend mode="normal" in="SourceGraphic" in2="BackgroundImageFix" result="shape"/>
<feColorMatrix in="SourceAlpha" type="matrix" values="0 0 0 0 0 0 0 0 0 0 0 0 0 0 0 0 0 0 127 0" result="hardAlpha"/>
<feOffset dx="-2.55363" dy="-2.55363"/>
<feGaussianBlur stdDeviation="2.55363"/>
<feComposite in2="hardAlpha" operator="arithmetic" k2="-1" k3="1"/>
<feColorMatrix type="matrix" values="0 0 0 0 1 0 0 0 0 1 0 0 0 0 1 0 0 0 0.1 0"/>
<feBlend mode="normal" in2="shape" result="effect1_innerShadow_2468_828"/>
<feColorMatrix in="SourceAlpha" type="matrix" values="0 0 0 0 0 0 0 0 0 0 0 0 0 0 0 0 0 0 127 0" result="hardAlpha"/>
<feOffset dy="1.27682"/>
<feGaussianBlur stdDeviation="0.638408"/>
<feComposite in2="hardAlpha" operator="arithmetic" k2="-1" k3="1"/>
<feColorMatrix type="matrix" values="0 0 0 0 1 0 0 0 0 1 0 0 0 0 1 0 0 0 0.1 0"/>
<feBlend mode="normal" in2="effect1_innerShadow_2468_828" result="effect2_innerShadow_2468_828"/>
</filter>
<filter id="filter3_ii_2468_828" x="253.371" y="82.1296" width="142.914" height="97.2346" filterUnits="userSpaceOnUse" color-interpolation-filters="sRGB">
<feFlood flood-opacity="0" result="BackgroundImageFix"/>
<feBlend mode="normal" in="SourceGraphic" in2="BackgroundImageFix" result="shape"/>
<feColorMatrix in="SourceAlpha" type="matrix" values="0 0 0 0 0 0 0 0 0 0 0 0 0 0 0 0 0 0 127 0" result="hardAlpha"/>
<feOffset dy="1.27682"/>
<feGaussianBlur stdDeviation="0.638408"/>
<feComposite in2="hardAlpha" operator="arithmetic" k2="-1" k3="1"/>
<feColorMatrix type="matrix" values="0 0 0 0 1 0 0 0 0 1 0 0 0 0 1 0 0 0 0.1 0"/>
<feBlend mode="normal" in2="shape" result="effect1_innerShadow_2468_828"/>
<feColorMatrix in="SourceAlpha" type="matrix" values="0 0 0 0 0 0 0 0 0 0 0 0 0 0 0 0 0 0 127 0" result="hardAlpha"/>
<feOffset dx="-2.55363" dy="-2.55363"/>
<feGaussianBlur stdDeviation="2.55363"/>
<feComposite in2="hardAlpha" operator="arithmetic" k2="-1" k3="1"/>
<feColorMatrix type="matrix" values="0 0 0 0 1 0 0 0 0 1 0 0 0 0 1 0 0 0 0.1 0"/>
<feBlend mode="normal" in2="effect1_innerShadow_2468_828" result="effect2_innerShadow_2468_828"/>
</filter>
<filter id="filter4_ii_2468_828" x="109.225" y="195.436" width="139.914" height="97.9785" filterUnits="userSpaceOnUse" color-interpolation-filters="sRGB">
<feFlood flood-opacity="0" result="BackgroundImageFix"/>
<feBlend mode="normal" in="SourceGraphic" in2="BackgroundImageFix" result="shape"/>
<feColorMatrix in="SourceAlpha" type="matrix" values="0 0 0 0 0 0 0 0 0 0 0 0 0 0 0 0 0 0 127 0" result="hardAlpha"/>
<feOffset dy="1.27682"/>
<feGaussianBlur stdDeviation="0.638408"/>
<feComposite in2="hardAlpha" operator="arithmetic" k2="-1" k3="1"/>
<feColorMatrix type="matrix" values="0 0 0 0 1 0 0 0 0 1 0 0 0 0 1 0 0 0 0.1 0"/>
<feBlend mode="normal" in2="shape" result="effect1_innerShadow_2468_828"/>
<feColorMatrix in="SourceAlpha" type="matrix" values="0 0 0 0 0 0 0 0 0 0 0 0 0 0 0 0 0 0 127 0" result="hardAlpha"/>
<feOffset dx="-2.55363" dy="-2.55363"/>
<feGaussianBlur stdDeviation="2.55363"/>
<feComposite in2="hardAlpha" operator="arithmetic" k2="-1" k3="1"/>
<feColorMatrix type="matrix" values="0 0 0 0 1 0 0 0 0 1 0 0 0 0 1 0 0 0 0.1 0"/>
<feBlend mode="normal" in2="effect1_innerShadow_2468_828" result="effect2_innerShadow_2468_828"/>
</filter>
<linearGradient id="paint0_linear_2468_828" x1="137.609" y1="79.4092" x2="239.754" y2="181.555" gradientUnits="userSpaceOnUse">
<stop stop-color="#667EEA"/>
<stop offset="1" stop-color="#764BA2"/>
</linearGradient>
<clipPath id="clip0_2468_828">
<rect width="365" height="262" fill="white"/>
</clipPath>
</defs>
</svg>
