<svg width="32" height="32" viewBox="0 0 32 32" fill="none" xmlns="http://www.w3.org/2000/svg">
<rect width="32" height="32" rx="6" fill="white"/>
<path d="M17 13H22.5L17 7.5V13ZM10 6H18L24 12V24C24 24.5304 23.7893 25.0391 23.4142 25.4142C23.0391 25.7893 22.5304 26 22 26H10C9.46957 26 8.96086 25.7893 8.58579 25.4142C8.21071 25.0391 8 24.5304 8 24V8C8 7.46957 8.21071 6.96086 8.58579 6.58579C8.96086 6.21071 9.46957 6 10 6ZM14.93 16.44C15.34 17.34 15.86 18.08 16.46 18.59L16.87 18.91C16 19.07 14.8 19.35 13.53 19.84L13.42 19.88L13.92 18.84C14.37 17.97 14.7 17.18 14.93 16.44ZM21.41 20.25C21.59 20.07 21.68 19.84 21.69 19.59C21.72 19.39 21.67 19.2 21.57 19.04C21.28 18.57 20.53 18.35 19.29 18.35L18 18.42L17.13 17.84C16.5 17.32 15.93 16.41 15.53 15.28L15.57 15.14C15.9 13.81 16.21 12.2 15.55 11.54C15.4693 11.4616 15.3738 11.4 15.2691 11.3588C15.1644 11.3176 15.0525 11.2976 14.94 11.3H14.7C14.33 11.3 14 11.69 13.91 12.07C13.54 13.4 13.76 14.13 14.13 15.34V15.35C13.88 16.23 13.56 17.25 13.05 18.28L12.09 20.08L11.2 20.57C10 21.32 9.43 22.16 9.32 22.69C9.28 22.88 9.3 23.05 9.37 23.23L9.4 23.28L9.88 23.59L10.32 23.7C11.13 23.7 12.05 22.75 13.29 20.63L13.47 20.56C14.5 20.23 15.78 20 17.5 19.81C18.53 20.32 19.74 20.55 20.5 20.55C20.94 20.55 21.24 20.44 21.41 20.25ZM21 19.54L21.09 19.65C21.08 19.75 21.05 19.76 21 19.78H20.96L20.77 19.8C20.31 19.8 19.6 19.61 18.87 19.29C18.96 19.19 19 19.19 19.1 19.19C20.5 19.19 20.9 19.44 21 19.54ZM11.83 21C11.18 22.19 10.59 22.85 10.14 23C10.19 22.62 10.64 21.96 11.35 21.31L11.83 21ZM14.85 14.09C14.62 13.19 14.61 12.46 14.78 12.04L14.85 11.92L15 11.97C15.17 12.21 15.19 12.53 15.09 13.07L15.06 13.23L14.9 14.05L14.85 14.09Z" fill="#EF5350"/>
</svg>
