<svg width="40" height="40" viewBox="0 0 40 40" fill="none" xmlns="http://www.w3.org/2000/svg">
<rect width="40" height="40" rx="20" fill="url(#paint0_linear_2178_566)"/>
<path d="M15.5114 26V14.3636H20.1023C20.9811 14.3636 21.7311 14.5208 22.3523 14.8352C22.9773 15.1458 23.4527 15.5871 23.7784 16.1591C24.108 16.7273 24.2727 17.3958 24.2727 18.1648C24.2727 18.9375 24.1061 19.6023 23.7727 20.1591C23.4394 20.7121 22.9564 21.1364 22.3239 21.4318C21.6951 21.7273 20.9337 21.875 20.0398 21.875H16.9659V19.8977H19.642C20.1117 19.8977 20.5019 19.8333 20.8125 19.7045C21.1231 19.5758 21.3542 19.3826 21.5057 19.125C21.661 18.8674 21.7386 18.5473 21.7386 18.1648C21.7386 17.7784 21.661 17.4527 21.5057 17.1875C21.3542 16.9223 21.1212 16.7216 20.8068 16.5852C20.4962 16.4451 20.1042 16.375 19.6307 16.375H17.9716V26H15.5114ZM21.7955 20.7045L24.6875 26H21.9716L19.142 20.7045H21.7955Z" fill="white"/>
<defs>
<linearGradient id="paint0_linear_2178_566" x1="0" y1="0" x2="40" y2="40" gradientUnits="userSpaceOnUse">
<stop stop-color="#667EEA"/>
<stop offset="1" stop-color="#764BA2"/>
</linearGradient>
</defs>
</svg>
