<svg width="32" height="32" viewBox="0 0 32 32" fill="none" xmlns="http://www.w3.org/2000/svg">
<circle cx="16" cy="16" r="16" fill="#424242"/>
<g clip-path="url(#clip0_2228_655)">
<path d="M16.5893 9.03012C16.433 8.8739 16.2211 8.78613 16.0001 8.78613C15.7792 8.78613 15.5672 8.8739 15.411 9.03012L10.6968 13.7443C10.6172 13.8212 10.5537 13.9131 10.51 14.0148C10.4664 14.1165 10.4434 14.2258 10.4424 14.3365C10.4415 14.4471 10.4625 14.5568 10.5044 14.6592C10.5463 14.7617 10.6082 14.8547 10.6865 14.933C10.7647 15.0112 10.8577 15.0731 10.9602 15.115C11.0626 15.1569 11.1723 15.178 11.283 15.177C11.3936 15.176 11.503 15.153 11.6046 15.1094C11.7063 15.0657 11.7983 15.0022 11.8751 14.9226L15.1668 11.631V22.6668C15.1668 22.8878 15.2546 23.0998 15.4109 23.256C15.5671 23.4123 15.7791 23.5001 16.0001 23.5001C16.2211 23.5001 16.4331 23.4123 16.5894 23.256C16.7457 23.0998 16.8335 22.8878 16.8335 22.6668V11.631L20.1251 14.9226C20.2823 15.0744 20.4928 15.1584 20.7113 15.1565C20.9298 15.1546 21.1388 15.067 21.2933 14.9125C21.4478 14.758 21.5355 14.549 21.5374 14.3305C21.5393 14.112 21.4553 13.9015 21.3035 13.7443L16.5893 9.03012Z" fill="white"/>
</g>
<defs>
<clipPath id="clip0_2228_655">
<rect width="20" height="20" fill="white" transform="translate(6 6)"/>
</clipPath>
</defs>
</svg>
