<svg width="60" height="60" viewBox="0 0 60 60" fill="none" xmlns="http://www.w3.org/2000/svg">
<path d="M54.0112 5.62501H18.1968C17.9032 5.62427 17.6123 5.6815 17.3408 5.79342C17.0693 5.90533 16.8226 6.06974 16.6148 6.2772C16.407 6.48466 16.2422 6.73111 16.1298 7.0024C16.0174 7.27369 15.9597 7.56449 15.96 7.85814V17.8125L36.7143 23.9063L56.25 17.8125V7.85814C56.2502 7.56434 56.1924 7.27338 56.0799 7.00196C55.9675 6.73055 55.8025 6.48402 55.5945 6.27653C55.3864 6.06905 55.1395 5.90468 54.8678 5.79288C54.5961 5.68107 54.305 5.62402 54.0112 5.62501Z" fill="#41A5EE"/>
<path d="M56.25 17.8125H15.96V30L36.7143 33.6563L56.25 30V17.8125Z" fill="#2B7CD3"/>
<path d="M15.96 30V42.1875L35.4937 44.625L56.25 42.1875V30H15.96Z" fill="#185ABD"/>
<path d="M18.1968 54.375H54.0093C54.3033 54.3762 54.5946 54.3194 54.8665 54.2077C55.1384 54.096 55.3856 53.9317 55.5938 53.7241C55.802 53.5166 55.9672 53.27 56.0798 52.9985C56.1924 52.7269 56.2502 52.4358 56.25 52.1419V42.1875H15.96V52.1419C15.9597 52.4355 16.0174 52.7263 16.1298 52.9976C16.2422 53.2689 16.407 53.5153 16.6148 53.7228C16.8226 53.9303 17.0693 54.0947 17.3408 54.2066C17.6123 54.3185 17.9032 54.3757 18.1968 54.375Z" fill="#103F91"/>
<path opacity="0.1" d="M30.8137 15.375H15.96V45.8438H30.8137C31.4056 45.8408 31.9725 45.6048 32.3915 45.1868C32.8106 44.7688 33.048 44.2025 33.0525 43.6106V17.6081C33.048 17.0163 32.8106 16.45 32.3915 16.032C31.9725 15.614 31.4056 15.3779 30.8137 15.375Z" fill="black"/>
<path opacity="0.2" d="M29.5931 16.5938H15.96V47.0625H29.5931C30.185 47.0596 30.7518 46.8235 31.1709 46.4055C31.5899 45.9875 31.8274 45.4212 31.8318 44.8294V18.8269C31.8274 18.235 31.5899 17.6687 31.1709 17.2507C30.7518 16.8327 30.185 16.5967 29.5931 16.5938Z" fill="black"/>
<path opacity="0.2" d="M29.5931 16.5938H15.96V44.625H29.5931C30.185 44.6221 30.7518 44.386 31.1709 43.968C31.5899 43.55 31.8274 42.9837 31.8318 42.3919V18.8269C31.8274 18.235 31.5899 17.6687 31.1709 17.2507C30.7518 16.8327 30.185 16.5967 29.5931 16.5938Z" fill="black"/>
<path opacity="0.2" d="M28.3725 16.5938H15.96V44.625H28.3725C28.9643 44.6221 29.5312 44.386 29.9503 43.968C30.3693 43.55 30.6068 42.9837 30.6112 42.3919V18.8269C30.6068 18.235 30.3693 17.6687 29.9503 17.2507C29.5312 16.8327 28.9643 16.5967 28.3725 16.5938Z" fill="black"/>
<path d="M5.98875 16.5938H28.3725C28.9654 16.5933 29.5343 16.8282 29.9541 17.2469C30.3739 17.6657 30.6103 18.234 30.6113 18.8269V41.1731C30.6103 41.7661 30.3739 42.3343 29.9541 42.7531C29.5343 43.1718 28.9654 43.4068 28.3725 43.4063H5.98875C5.69495 43.4072 5.40385 43.3502 5.13215 43.2384C4.86045 43.1266 4.61351 42.9622 4.4055 42.7547C4.19749 42.5473 4.03251 42.3007 3.92002 42.0293C3.80753 41.7579 3.74975 41.4669 3.75 41.1731V18.8269C3.74975 18.5331 3.80753 18.2421 3.92002 17.9707C4.03251 17.6993 4.19749 17.4528 4.4055 17.2453C4.61351 17.0378 4.86045 16.8734 5.13215 16.7616C5.40385 16.6498 5.69495 16.5928 5.98875 16.5938Z" fill="url(#paint0_linear_2196_474)"/>
<path d="M12.9375 33.7275C12.9812 34.0725 13.01 34.3731 13.0237 34.6293H13.0762C13.095 34.3856 13.1356 34.0919 13.1981 33.7481C13.2918 33.2325 13.3143 33.1144 13.365 32.8762L15.7181 22.7381H18.7631L21.2006 32.7243C21.3413 33.3423 21.4428 33.9686 21.5043 34.5993H21.5456C21.5923 33.9854 21.6769 33.3748 21.7987 32.7712L23.7468 22.725H26.5162L23.0962 37.2525H19.8581L17.5387 27.6412C17.4712 27.3637 17.395 27.0025 17.31 26.5575C17.225 26.1125 17.1725 25.7875 17.1525 25.5825H17.1131C17.0868 25.8187 17.0343 26.1694 16.9556 26.6344C16.8768 27.0994 16.8143 27.4444 16.7681 27.6694L14.5875 37.2581H11.295L7.8562 22.7381H10.6687L12.7893 32.8969C12.8511 33.1714 12.9006 33.4485 12.9375 33.7275Z" fill="white"/>
<defs>
<linearGradient id="paint0_linear_2196_474" x1="8.42625" y1="14.8388" x2="25.935" y2="45.1613" gradientUnits="userSpaceOnUse">
<stop stop-color="#2368C4"/>
<stop offset="0.5" stop-color="#1A5DBE"/>
<stop offset="1" stop-color="#1146AC"/>
</linearGradient>
</defs>
</svg>
